<?xml version="1.0" standalone="no"?>
<!DOCTYPE svg PUBLIC "-//W3C//DTD SVG 20010904//EN"
 "http://www.w3.org/TR/2001/REC-SVG-20010904/DTD/svg10.dtd">
<svg version="1.0" xmlns="http://www.w3.org/2000/svg"
 width="389.000000pt" height="389.000000pt" viewBox="0 0 389.000000 389.000000"
 preserveAspectRatio="xMidYMid meet">
<metadata>
Created by potrace 1.14, written by Peter Selinger 2001-2017
</metadata>
<g transform="translate(0.000000,389.000000) scale(0.100000,-0.100000)"
fill="#000000" stroke="none">
<path d="M1785 3723 c-22 -2 -71 -11 -110 -19 -38 -9 -79 -17 -90 -18 -26 -3
-142 -55 -177 -78 -14 -10 -31 -18 -37 -18 -19 0 -163 -103 -210 -150 -79 -79
-251 -298 -251 -319 0 -5 -7 -14 -15 -21 -20 -17 -65 -110 -65 -136 0 -12 -7
-27 -16 -35 -9 -8 -14 -22 -11 -37 3 -14 1 -57 -4 -96 -20 -152 -6 -460 23
-506 17 -27 9 -30 -39 -17 -34 9 -45 8 -67 -6 -27 -18 -75 -110 -48 -94 4 3 7
-49 7 -115 0 -80 4 -126 12 -137 7 -9 12 -11 13 -4 0 6 -5 15 -10 18 -6 4 -7
11 -4 17 4 6 19 -18 34 -53 18 -41 24 -68 18 -76 -6 -7 -4 -13 4 -17 10 -5 10
-7 1 -12 -7 -3 -13 -10 -13 -15 0 -5 6 -8 13 -7 7 2 11 -6 9 -22 -2 -19 0 -22
8 -10 8 13 10 12 10 -2 0 -10 4 -18 8 -18 10 0 -1 85 -17 123 -15 38 -27 167
-15 167 5 0 10 22 11 48 1 27 7 69 12 93 14 58 13 71 -1 64 -7 -4 -4 1 7 11
l20 17 -20 -8 c-11 -4 -29 -8 -40 -9 -11 0 -25 -8 -32 -16 -9 -11 -12 -12 -13
-2 0 7 6 20 14 28 17 16 30 19 21 4 -9 -15 7 -12 31 4 21 15 68 11 59 -4 -3
-4 5 -10 17 -13 12 -4 19 -9 15 -13 -4 -4 0 -12 8 -18 9 -7 16 -31 17 -61 2
-27 6 -52 10 -55 4 -3 11 -24 16 -46 8 -36 7 -41 -7 -37 -37 10 -77 -80 -72
-162 4 -65 16 -95 39 -95 16 0 20 -14 30 -122 6 -67 9 -125 7 -129 -3 -4 1
-10 7 -12 8 -4 7 -6 -4 -6 -9 -1 -33 14 -52 33 -20 18 -36 30 -36 26 0 -5 24
-30 54 -57 52 -46 56 -52 82 -148 21 -79 27 -121 27 -198 -1 -59 3 -97 9 -97
6 0 1 -8 -11 -17 -11 -10 -28 -42 -38 -71 -19 -57 -25 -62 -123 -105 -109 -48
-325 -184 -528 -332 -54 -39 -139 -95 -189 -124 l-93 -53 0 -164 0 -164 705 0
706 0 -79 98 c-71 87 -111 141 -178 239 -12 17 -40 71 -64 120 -60 126 -61
127 -64 143 -2 8 -7 23 -11 33 -4 10 -3 29 3 42 9 20 9 23 -3 19 -17 -7 -22
10 -35 131 -12 111 -13 185 -1 185 4 0 7 -11 6 -25 -2 -16 2 -25 11 -25 10 0
14 -14 15 -47 1 -41 2 -44 8 -18 7 29 7 29 13 -13 4 -25 14 -50 25 -57 10 -8
14 -15 9 -15 -5 0 1 -11 14 -25 13 -14 18 -25 12 -25 -15 0 2 -33 35 -67 12
-13 29 -39 38 -58 10 -19 25 -37 36 -40 10 -4 19 -15 19 -26 0 -12 7 -19 19
-19 11 0 38 -18 61 -40 23 -22 46 -40 51 -40 5 0 9 -4 9 -10 0 -5 -7 -10 -16
-10 -14 0 -14 -3 -4 -15 14 -17 56 -20 65 -5 3 6 -4 14 -17 19 -14 6 -17 10
-7 10 16 1 69 -39 69 -52 0 -4 -10 -7 -21 -7 -18 0 -19 -3 -9 -14 12 -16 39
-10 55 11 6 8 18 11 28 7 22 -8 22 -24 0 -25 -14 0 -13 -2 5 -9 27 -12 29 -20
2 -13 -11 3 -20 2 -20 -1 0 -18 82 -87 109 -92 17 -4 31 -11 31 -16 0 -12 42
-27 59 -20 10 4 7 10 -10 23 -20 16 -22 20 -9 29 13 9 13 10 -1 10 -8 0 -20
-5 -26 -11 -17 -17 -44 -4 -36 17 4 12 14 15 39 11 20 -3 34 -1 34 4 0 6 6 7
13 2 27 -18 76 -30 89 -22 7 5 42 6 78 3 50 -4 62 -3 50 6 -12 9 -8 10 17 5
18 -4 40 -2 49 3 12 7 22 6 32 -4 10 -10 19 -11 32 -4 10 5 26 7 34 4 9 -3 16
-1 16 5 0 6 14 11 31 11 17 0 28 4 24 10 -3 5 1 10 9 10 9 0 16 -4 16 -10 0
-5 5 -10 10 -10 6 0 10 6 10 13 0 6 14 27 31 45 17 18 29 36 25 39 -6 6 61 43
79 43 6 0 18 8 26 18 9 9 34 34 57 55 23 21 42 42 42 47 0 5 9 12 20 15 11 4
17 11 14 17 -4 6 -3 8 2 5 6 -3 16 -1 24 4 12 8 12 12 2 16 -10 4 -9 9 4 24 9
10 23 19 31 19 7 0 13 3 13 8 0 4 18 31 40 60 22 29 38 58 34 63 -3 6 3 17 15
25 11 8 32 39 45 69 39 83 46 78 41 -27 -3 -51 -8 -109 -10 -128 -7 -48 -67
-284 -74 -290 -3 -3 -7 -15 -9 -28 -2 -12 -10 -35 -18 -50 -7 -15 -14 -32 -14
-39 0 -17 -33 -86 -45 -95 -5 -4 -7 -8 -3 -8 8 0 -80 -181 -92 -190 -4 -3 -12
-15 -19 -27 l-12 -23 726 0 725 0 0 273 0 272 -108 52 c-118 57 -179 83 -292
120 -41 13 -88 31 -105 38 -16 8 -67 25 -113 39 -45 13 -111 42 -145 63 -75
47 -184 94 -289 125 -43 13 -78 27 -78 32 0 5 6 17 14 25 24 27 88 152 82 159
-4 3 -10 -5 -13 -18 -6 -22 -7 -23 -15 -4 -6 14 -7 12 -3 -9 4 -18 2 -26 -4
-22 -7 4 -8 -1 -4 -11 4 -11 3 -15 -5 -10 -6 4 -12 -3 -14 -16 -2 -13 -7 -23
-13 -23 -5 0 -20 -7 -33 -16 -16 -12 -20 -22 -15 -35 6 -17 5 -18 -12 -4 -16
14 -17 13 -11 -8 7 -19 4 -22 -22 -22 -19 0 -32 -6 -36 -17 -3 -10 -9 -24 -12
-32 -5 -10 -2 -12 9 -8 11 4 14 2 10 -8 -3 -8 -9 -12 -14 -9 -5 3 -9 -2 -9
-11 0 -9 -5 -13 -10 -10 -13 8 -51 -36 -45 -52 2 -6 -3 -14 -11 -17 -10 -4
-14 -17 -12 -43 2 -31 0 -37 -14 -35 -9 1 -19 -2 -23 -8 -3 -5 -13 -10 -22
-10 -17 0 -84 -55 -81 -67 1 -5 -6 -9 -15 -11 -10 -2 -17 3 -17 12 0 9 -4 16
-8 16 -5 0 -7 -15 -4 -33 4 -29 3 -30 -10 -14 -11 15 -18 16 -41 8 -15 -6 -27
-15 -27 -21 0 -5 -12 -10 -27 -11 -25 0 -26 -1 -8 -10 18 -8 17 -8 -6 -6 -14
1 -34 -6 -43 -16 -10 -9 -25 -17 -34 -17 -9 -1 -35 -8 -57 -16 -65 -24 -144
-44 -176 -44 -36 0 -117 18 -141 31 -10 5 -24 9 -32 9 -7 0 -19 7 -26 15 -7 8
-23 15 -36 15 -13 0 -24 4 -24 8 0 5 -12 15 -27 23 -16 8 -33 21 -40 29 -10
12 -12 12 -13 1 0 -16 -40 31 -40 48 0 6 -4 11 -10 11 -5 0 -10 9 -10 19 0 10
-7 21 -15 25 -8 3 -15 15 -15 26 0 11 -6 20 -14 20 -8 0 -17 12 -21 27 -8 34
-45 61 -45 33 0 -5 7 -10 16 -10 14 0 14 -3 4 -15 -10 -12 -10 -19 -2 -27 16
-16 15 -25 -3 -32 -14 -5 -95 65 -95 83 0 4 -11 13 -24 19 -17 7 -29 25 -37
54 -7 24 -19 47 -26 51 -7 4 -13 13 -13 19 0 6 -11 21 -25 34 -14 13 -25 28
-25 34 0 7 -10 26 -22 43 -12 17 -22 40 -23 52 0 13 -8 21 -22 23 -28 4 -29
10 -5 28 16 13 16 13 -3 15 -11 1 -26 1 -32 0 -8 -1 -13 9 -13 24 0 14 5 25
11 25 5 0 2 14 -8 31 -16 28 -22 30 -58 26 -22 -3 -32 -3 -22 0 18 5 24 23 7
23 -18 0 -33 52 -18 62 10 6 8 8 -4 8 -20 0 -24 26 -5 33 9 3 9 7 -2 20 -8 10
-12 34 -9 62 2 33 -1 46 -12 51 -12 5 -10 8 7 15 33 12 31 49 -2 49 -22 0 -24
3 -15 19 14 26 13 31 -6 31 -12 0 -14 7 -9 29 5 22 2 32 -10 39 -15 8 -15 10
-1 25 18 17 21 47 6 47 -13 0 -1 82 13 91 5 4 7 14 4 23 -4 10 -1 16 9 16 12
0 13 3 1 23 -14 24 -16 46 -4 64 4 7 9 28 11 46 5 56 10 58 81 32 35 -12 66
-20 69 -18 9 10 55 -26 70 -55 8 -15 19 -53 25 -84 17 -95 31 -113 108 -139
61 -20 86 -23 233 -22 143 2 174 5 223 23 31 12 63 30 70 41 8 10 17 16 20 12
4 -3 7 -1 7 6 0 7 5 9 10 6 6 -3 10 -2 10 3 0 5 9 19 19 31 10 12 27 55 37 97
19 81 38 104 86 104 39 0 54 -21 72 -104 23 -101 47 -134 126 -173 l65 -32
190 3 c272 4 308 21 336 155 23 109 82 189 92 122 l3 -26 13 29 c6 16 15 66
18 110 3 45 10 86 15 93 6 7 12 100 15 207 4 155 2 216 -12 303 -20 125 -48
206 -100 288 -13 22 -29 49 -34 61 -37 82 -242 304 -336 361 -150 92 -281 144
-423 168 -93 15 -231 24 -297 18z m175 -364 c0 -5 -4 -9 -10 -9 -5 0 -10 7
-10 16 0 8 5 12 10 9 6 -3 10 -10 10 -16z m117 15 c-3 -3 -12 -4 -19 -1 -8 3
-5 6 6 6 11 1 17 -2 13 -5z m-24 -64 c-8 -30 34 -46 72 -26 15 8 33 12 38 9
46 -28 285 -8 273 23 -8 21 26 21 84 1 64 -23 104 -49 144 -95 82 -93 119
-160 162 -291 41 -125 55 -183 49 -202 -4 -12 -1 -21 9 -25 9 -4 16 -11 15
-18 -5 -40 2 -66 19 -67 10 0 12 -3 5 -6 -15 -5 -17 -39 -5 -47 5 -3 8 -55 7
-115 -2 -95 -6 -115 -26 -148 -44 -72 -73 -80 -106 -28 -13 19 -35 42 -50 52
-16 9 -37 27 -49 39 -17 17 -37 22 -115 28 -52 4 -115 4 -139 1 -53 -8 -121
-35 -115 -46 3 -4 0 -9 -6 -11 -11 -4 -24 -68 -15 -68 17 0 35 14 29 22 -4 7
6 9 28 4 19 -3 70 -1 114 4 84 11 199 4 189 -11 -3 -5 9 -9 25 -9 17 0 31 -4
31 -10 0 -5 12 -10 28 -10 15 0 32 -4 39 -8 6 -4 -68 -6 -165 -4 -255 5 -408
-8 -457 -38 -32 -20 -55 -25 -132 -28 -82 -3 -96 -1 -122 19 -42 31 -170 42
-436 37 -121 -2 -203 -2 -182 0 34 3 54 22 25 22 -7 1 -2 7 12 15 14 8 21 15
15 15 -5 0 -3 4 5 10 9 5 19 5 25 0 12 -10 75 -9 75 1 0 4 53 6 118 6 124 -1
151 5 131 29 -14 17 2 19 19 2 9 -9 15 -8 26 8 13 16 13 19 0 22 -8 2 -14 7
-14 12 0 16 -85 28 -139 20 -29 -5 -92 -7 -139 -5 -95 4 -101 2 -159 -52 -77
-72 -103 -93 -116 -93 -6 -1 2 -7 18 -14 l30 -13 -25 -4 c-25 -5 -75 13 -65
23 3 3 -6 6 -20 6 -15 0 -40 9 -55 21 -16 11 -36 21 -45 21 -8 0 -15 6 -15 14
0 8 -6 16 -14 19 -7 3 -16 17 -18 32 -4 20 -2 25 9 21 8 -3 11 -1 8 4 -3 5 -3
31 1 58 6 48 13 56 84 96 31 17 64 166 38 166 -7 0 -6 5 1 14 17 20 3 96 -17
96 -13 0 -12 3 4 15 15 12 16 16 5 24 -8 5 -10 14 -5 22 5 8 9 30 10 49 0 19
6 46 11 60 6 14 9 28 6 33 -2 4 1 7 7 7 7 0 10 6 7 14 -3 8 1 20 8 26 8 7 13
16 10 20 -6 9 65 104 102 135 15 14 36 25 46 25 9 0 17 6 17 14 0 18 53 28
115 20 28 -3 98 -6 157 -7 61 -1 104 -6 100 -11 -3 -6 3 -6 14 -2 10 5 45 8
77 8 31 0 57 4 57 8 0 5 6 7 14 4 8 -3 17 -1 21 5 4 8 11 7 20 -2 18 -19 73
-9 86 14 5 11 14 17 18 15 4 -3 17 3 27 13 23 22 34 18 27 -9z m854 -586 c-3
-3 -12 -4 -19 -1 -8 3 -5 6 6 6 11 1 17 -2 13 -5z m-1962 -479 c0 -30 -3 -55
-6 -55 -15 0 -26 90 -12 103 14 15 18 5 18 -48z m-178 19 c-3 -3 -12 -4 -19
-1 -8 3 -5 6 6 6 11 1 17 -2 13 -5z m1871 -44 c68 -5 128 -12 133 -16 11 -7
-22 -42 -56 -60 -15 -8 -26 -7 -44 5 -27 17 -27 17 -101 31 -97 18 -199 14
-260 -9 -69 -26 -79 -26 -77 0 2 30 34 39 162 48 60 5 112 9 115 9 3 1 60 -3
128 -8z m-831 -24 c83 -15 103 -28 102 -65 -1 -17 -3 -20 -6 -8 -6 25 -23 21
-24 -5 0 -22 -1 -22 -8 -3 -8 19 -8 19 -19 -2 -7 -12 -12 -30 -11 -40 0 -16 1
-17 7 -1 5 13 11 15 22 8 10 -7 11 -10 3 -10 -7 0 -13 -7 -13 -15 0 -8 -7 -15
-15 -15 -9 0 -15 -10 -15 -26 0 -14 4 -23 9 -20 5 3 12 -1 15 -10 5 -13 9 -14
21 -4 8 7 15 9 15 6 0 -14 -33 -71 -53 -93 -43 -47 -224 -71 -393 -52 -134 15
-165 26 -186 69 -22 45 -36 170 -19 170 15 0 46 -30 54 -52 4 -12 17 -18 35
-18 15 0 33 -5 38 -10 7 -7 28 -8 54 -4 l43 7 -26 23 c-31 26 -26 34 23 34 20
0 41 5 48 12 8 8 12 9 12 1 0 -8 27 -10 86 -8 l85 4 -6 -30 c-7 -33 -6 -34 30
-17 14 6 25 19 25 28 0 10 7 23 15 30 12 10 12 16 4 26 -6 8 -9 20 -6 28 13
32 -46 58 -130 57 -64 0 -234 -29 -247 -42 -24 -22 -52 -7 -47 24 2 11 -37 9
-60 -3 -10 -6 -19 -7 -19 -2 0 10 63 29 115 35 77 10 376 5 442 -7z m-207 -46
c0 -5 -4 -10 -10 -10 -5 0 -10 5 -10 10 0 6 5 10 10 10 6 0 10 -4 10 -10z
m855 0 c3 -5 1 -10 -4 -10 -6 0 -11 5 -11 10 0 6 2 10 4 10 3 0 8 -4 11 -10z
m370 -62 c-5 -74 -7 -84 -27 -151 -20 -67 -116 -97 -314 -97 -173 0 -238 20
-278 89 -18 32 -28 111 -13 111 5 0 5 5 1 12 -4 7 -3 8 4 4 7 -4 12 -14 12
-22 0 -8 6 -14 13 -14 9 0 8 -3 -2 -9 -7 -5 -9 -11 -4 -14 4 -3 17 1 28 9 19
14 19 14 -3 30 -28 19 -28 55 -1 72 12 7 24 11 27 8 3 -3 1 -6 -5 -6 -6 0 -13
-8 -16 -19 -3 -14 0 -17 14 -14 11 3 22 9 25 14 9 14 27 10 21 -5 -3 -7 0 -19
6 -25 8 -8 7 -11 -6 -11 -9 0 -17 -7 -17 -16 0 -14 3 -14 15 -4 12 10 15 9 15
-4 0 -10 5 -14 10 -11 6 4 7 12 3 18 -19 30 -11 37 40 37 29 -1 86 3 127 8 42
5 82 6 92 1 9 -5 31 -9 48 -9 23 0 33 -5 37 -20 8 -30 20 -25 71 30 35 38 49
47 59 38 10 -8 13 -5 13 16 0 14 2 26 5 26 3 0 3 -33 0 -72z m-1146 46 c18
-13 20 -18 10 -25 -27 -17 -49 -10 -49 16 0 29 7 31 39 9z m504 9 c-7 -2 -14
-21 -14 -41 -2 -32 -3 -33 -6 -9 -5 35 2 57 19 56 10 0 10 -2 1 -6z m341 -9
c18 -7 12 -24 -10 -24 -8 0 -14 7 -14 15 0 17 2 18 24 9z m-174 -14 c0 -5 -4
-10 -10 -10 -5 0 -10 5 -10 10 0 6 5 10 10 10 6 0 10 -4 10 -10z m-620 -60 c0
-5 -2 -10 -4 -10 -3 0 -8 5 -11 10 -3 6 -1 10 4 10 6 0 11 -4 11 -10z m140
-40 c0 -5 -7 -10 -15 -10 -8 0 -15 5 -15 10 0 6 7 10 15 10 8 0 15 -4 15 -10z
m309 -90 c11 -24 11 -24 -3 -6 -9 11 -16 24 -16 30 0 12 5 7 19 -24z m-1281
-78 c-6 -45 -14 -82 -18 -82 -11 0 -18 81 -9 100 4 8 12 28 18 44 18 44 20 28
9 -62z m172 -557 c0 -15 -6 -25 -14 -25 -11 0 -12 5 -3 25 15 31 17 31 17 0z
m1700 -236 c-7 -11 -14 -18 -17 -15 -3 3 0 12 7 21 18 21 23 19 10 -6z m-1180
-739 c13 -8 13 -10 -2 -10 -9 0 -20 5 -23 10 -8 13 5 13 25 0z"/>
<path d="M1004 2409 c-3 -6 1 -18 10 -27 15 -15 16 -14 16 11 0 27 -13 36 -26
16z"/>
<path d="M2260 2260 c-8 -5 -10 -10 -5 -10 6 0 17 5 25 10 8 5 11 10 5 10 -5
0 -17 -5 -25 -10z"/>
<path d="M1408 1963 c12 -2 30 -2 40 0 9 3 -1 5 -23 4 -22 0 -30 -2 -17 -4z"/>
<path d="M2648 2003 c7 -3 16 -2 19 1 4 3 -2 6 -13 5 -11 0 -14 -3 -6 -6z"/>
<path d="M2378 1993 c7 -3 16 -2 19 1 4 3 -2 6 -13 5 -11 0 -14 -3 -6 -6z"/>
<path d="M2425 1980 c27 -12 35 -12 35 0 0 6 -12 10 -27 9 -25 0 -26 -1 -8 -9z"/>
<path d="M2500 1971 c0 -10 116 -8 126 1 3 3 -24 6 -60 7 -36 0 -66 -3 -66 -8z"/>
<path d="M2985 2289 c-4 -6 -4 -13 -1 -16 3 -4 6 -1 6 5 0 6 8 13 18 15 15 4
15 5 0 6 -9 0 -20 -4 -23 -10z"/>
<path d="M3016 2231 c-10 -11 -12 -21 -6 -31 5 -9 5 -19 -2 -27 -7 -9 -7 -13
0 -13 6 0 10 -6 8 -12 -3 -7 -7 -44 -10 -83 -4 -58 -3 -66 6 -45 l12 25 4 -29
c2 -16 0 -32 -5 -35 -4 -3 -9 -10 -9 -16 -1 -5 -5 -21 -9 -35 -7 -24 -6 -24
16 5 13 16 23 33 21 38 -1 5 2 6 8 2 5 -3 10 -1 10 6 0 7 3 9 7 6 7 -7 32 22
32 38 0 6 -6 1 -14 -9 -19 -25 -19 -18 0 27 8 20 15 51 15 70 0 18 5 38 11 44
9 9 7 20 -7 44 -24 40 -66 54 -88 30z"/>
<path d="M3045 1939 c-4 -6 -5 -12 -2 -15 2 -3 7 2 10 11 7 17 1 20 -8 4z"/>
<path d="M700 1885 c0 -5 5 -17 10 -25 5 -8 10 -10 10 -5 0 6 -5 17 -10 25 -5
8 -10 11 -10 5z"/>
<path d="M1704 1715 c-15 -23 -15 -26 10 -56 14 -17 26 -36 26 -43 0 -15 67
-86 81 -86 6 0 8 -4 5 -9 -3 -5 1 -14 8 -20 12 -10 13 -9 10 6 -5 17 -1 19 30
15 24 -3 33 -8 30 -17 -3 -8 6 -21 20 -30 37 -25 187 -12 207 17 3 5 14 10 25
12 10 2 32 9 47 15 15 6 31 10 35 8 11 -3 72 50 72 63 0 15 -43 4 -120 -32
-37 -17 -87 -32 -115 -33 -50 -4 -145 19 -145 35 0 4 -33 18 -72 31 -40 12
-81 27 -90 33 -24 15 -41 61 -34 91 8 32 -9 32 -30 0z"/>
<path d="M750 1700 c0 -8 9 -33 19 -55 16 -35 18 -37 17 -13 0 14 -4 24 -8 21
-5 -2 -8 4 -8 14 0 10 -5 25 -10 33 -9 13 -10 13 -10 0z"/>
<path d="M790 1694 c0 -8 5 -12 10 -9 6 4 8 11 5 16 -9 14 -15 11 -15 -7z"/>
<path d="M2340 1680 c0 -11 4 -20 9 -20 5 0 27 -24 49 -52 22 -29 55 -68 72
-87 17 -19 45 -61 62 -93 30 -56 48 -67 48 -28 0 25 -54 116 -93 159 -69 73
-137 141 -142 141 -3 0 -5 -9 -5 -20z"/>
<path d="M1605 1669 c-12 -19 5 -23 22 -6 16 16 16 17 1 17 -9 0 -20 -5 -23
-11z"/>
<path d="M1580 1629 c0 -5 5 -7 10 -4 6 3 10 8 10 11 0 2 -4 4 -10 4 -5 0 -10
-5 -10 -11z"/>
<path d="M1560 1601 c0 -5 -16 -26 -35 -47 -62 -67 -107 -136 -112 -171 -5
-35 24 -29 32 6 3 16 13 32 22 35 9 4 13 13 9 22 -3 8 -2 12 3 9 11 -6 65 69
87 120 8 21 10 35 4 35 -5 0 -10 -4 -10 -9z"/>
<path d="M791 1564 c0 -11 3 -14 6 -6 3 7 2 16 -1 19 -3 4 -6 -2 -5 -13z"/>
<path d="M1618 1360 c-36 -3 -69 -8 -73 -12 -16 -16 10 -50 58 -74 28 -15 64
-36 79 -47 15 -11 31 -17 35 -13 4 4 2 10 -4 14 -18 11 -34 60 -23 67 16 10
100 12 106 3 3 -5 21 -7 41 -6 25 2 38 -3 45 -15 7 -14 13 -16 24 -6 8 7 29 9
51 5 21 -3 57 -6 80 -6 24 1 51 -4 62 -10 13 -7 22 -7 26 0 9 14 55 13 55 -2
0 -7 7 -5 18 5 17 15 75 17 89 3 8 -8 -43 -76 -53 -68 -4 4 -2 -2 6 -12 12
-15 16 -16 18 -5 3 17 56 52 65 43 14 -15 137 92 137 119 0 22 -160 11 -168
-12 -2 -6 -8 -8 -14 -5 -6 4 -14 0 -19 -7 -7 -12 -9 -11 -9 1 0 12 -2 12 -9 2
-4 -8 -23 -15 -42 -17 -19 -3 -51 -7 -71 -11 -21 -4 -57 -1 -80 5 -24 7 -47
12 -52 11 -5 -1 -13 4 -17 12 -6 10 -9 8 -9 -7 0 -17 -2 -17 -10 -5 -9 13 -10
13 -10 0 0 -12 -2 -13 -9 -1 -7 11 -9 11 -14 0 -4 -12 -7 -11 -16 1 -8 12 -11
12 -11 1 0 -10 -3 -11 -13 -3 -7 6 -26 13 -42 16 -17 3 -46 11 -65 17 -67 21
-95 24 -162 19z"/>
<path d="M1120 1250 c0 -13 18 -22 24 -11 3 5 -1 11 -9 15 -8 3 -15 1 -15 -4z"/>
<path d="M1817 1224 c-15 -15 -6 -42 16 -48 35 -10 203 -20 195 -11 -4 4 -44
11 -90 16 -65 7 -86 14 -98 30 -9 11 -19 17 -23 13z"/>
<path d="M1735 1200 c3 -5 10 -10 16 -10 5 0 9 5 9 10 0 6 -7 10 -16 10 -8 0
-12 -4 -9 -10z"/>
<path d="M2205 1170 c-3 -5 -1 -10 4 -10 6 0 11 5 11 10 0 6 -2 10 -4 10 -3 0
-8 -4 -11 -10z"/>
<path d="M1848 1153 c7 -3 16 -2 19 1 4 3 -2 6 -13 5 -11 0 -14 -3 -6 -6z"/>
<path d="M1086 687 c3 -10 9 -15 12 -12 3 3 0 11 -7 18 -10 9 -11 8 -5 -6z"/>
<path d="M1745 190 c3 -5 8 -10 11 -10 2 0 4 5 4 10 0 6 -5 10 -11 10 -5 0 -7
-4 -4 -10z"/>
<path d="M1918 43 c7 -3 16 -2 19 1 4 3 -2 6 -13 5 -11 0 -14 -3 -6 -6z"/>
<path d="M2008 43 c6 -2 18 -2 25 0 6 3 1 5 -13 5 -14 0 -19 -2 -12 -5z"/>
</g>
</svg>
